<svg xmlns="http://www.w3.org/2000/svg" viewBox="0 0 69.36 70.02"><g id="Layer_2" data-name="Layer 2"><g id="Layer_1-2" data-name="Layer 1"><path d="M35.08,48.09c2.2,2.57,4.62,4.58,5.85,7.16a6.39,6.39,0,0,1-.87,5.82c-.83.9-4.39.76-5.48-.26-8.84-8.29-17.41-16.87-26-25.4-2.07-2-3.55-4.94-.72-6.71,1.79-1.11,5.18-.53,7.47.33,2,.75,3.41,3,5.55,4.95,4.82-5.62,9.35-10.83,13.81-16.1,3.85-4.55,7.5-9.28,11.5-13.69A8.69,8.69,0,0,1,51,1.85C55.85,1,60.8.54,65.75,0c2.88-.29,3.9,1.36,3.54,4C68.61,9.11,68.05,14.21,67,19.21c-.33,1.6-1.78,3.19-3.11,4.32-8.19,7-16.51,13.88-24.76,20.82C37.78,45.5,36.52,46.76,35.08,48.09ZM57,13.61l-1.4-1.36c-9.46,9.08-19.27,17.83-27.78,27.84l1.59,1.55Z"/><path d="M5.41,70c-1.8-1.59-4-2.79-4.93-4.62C-.25,64-.15,61.18.82,60c3.48-4.2,7.47-8,11.32-11.89.43-.43,1.5-.92,1.73-.73,2.5,2.09,5.22,4.08,7.11,6.65.57.77-.86,3.67-2.06,5a117.26,117.26,0,0,1-9.16,8.37A35.93,35.93,0,0,1,5.41,70Z"/></g></g></svg>