<svg xmlns="http://www.w3.org/2000/svg" viewBox="0 0 82.08 79.95"><g id="Layer_2" data-name="Layer 2"><g id="Layer_1-2" data-name="Layer 1"><path d="M33.62,66.92c1.24.7,2.45,2,3.71,2,5.64.22,11.37.62,16.93-.14a11,11,0,0,0,7.24-4.94c4.4-8.19,14.42-9.51,20.58-1.59-2.79,1.53-5.46,3.05-8.19,4.46Q63.33,72.16,52.7,77.51A20.36,20.36,0,0,1,36.81,79c-5.32-1.72-10.73-3.24-15.9-5.36A6.51,6.51,0,0,1,17.63,69c-.47-5-.19-10-.3-15-.06-2.85.93-4.08,4.05-4.13,5.82-.09,11.31.82,15.87,4.52,4.26,3.44,9.09,2.48,13.8,2.53,3,0,6.42,0,6.43,3.64S54.21,65,50.87,64.92c-5.45-.13-10.91,0-16.37,0Z"/><path d="M42.07,13.48c0-3.74.16-6.56,0-9.37C41.76.08,44.28,0,47.19,0s6-.34,5.88,4c0,2.82,0,5.64,0,9.39,3.17,0,6.09.1,9,0,4-.16,4.52,2.2,4.45,5.45s-.27,5.8-4.47,5.33a19,19,0,0,0-2-.08C52.94,24,52.94,24,53,31.26c0,6-1.17,7.11-6.87,6.74-2.9-.18-4.24-1.42-4-4.37.12-1.66-.12-3.35.05-5,.36-3.59-1.37-4.85-4.71-4.57-1,.09-2-.07-3,0-3.89.44-6.21-.26-6.11-5.17.09-4.67,2.13-5.76,6.14-5.48C36.83,13.62,39.26,13.48,42.07,13.48Z"/><path d="M13,61.79c0,3.33,0,6.66,0,10,0,4.42-2.67,5.12-6.3,4.86-3.3-.23-6.89.47-6.68-4.88C.27,64.94.24,58.1,0,51.28c-.15-4.65,2.78-4.49,5.91-4.53,3.42,0,7-.51,7.12,4.54.05,3.5,0,7,0,10.5Z"/></g></g></svg>