<svg xmlns="http://www.w3.org/2000/svg" viewBox="0 0 74.08 73.81"><g id="Layer_2" data-name="Layer 2"><g id="Layer_1-2" data-name="Layer 1"><path d="M50,11.19c-2.45,4.1-4.8,5.34-9.74,3.24a25.16,25.16,0,0,0-23,1.58c-2.84,1.63-4.31,3.28-3.52,7.14,1.57,7.61,2.21,15.4,3.38,23.09.2,1.35,1.13,2.59,1.73,3.87,1.26-.6,2.79-.93,3.73-1.85C34.31,36.72,46,25.09,57.65,13.51,60.07,11.12,61.37,9,58.27,6a5,5,0,0,1-.86-4.36C57.71.75,59.85.53,61.18.07a3,3,0,0,1,1,0C75.84.06,74-1.62,74,13.7c0,3.44-2.64,4.5-5.47,2.34-2.23-1.71-4.08-3.45-6.85-.84-3,2.85-.94,4.94.67,7.31,9.12,13.44,8.87,27.77-.26,40.77-1.17,1.66-.72,4.42-1.23,6.62-.3,1.33-.66,3.09-1.61,3.69-.8.51-3.29,0-3.66-.68-5.26-10.53-16-7.28-24.38-9.75A42.6,42.6,0,0,0,19,61.34c-5.36,0-6.26-3.39-6.85-7.29-1.39-9-2.46-18-4.07-27-.38-2.1-2.3-4-3.75-5.79C3.39,20.14,1.75,19.57,1,18.4c-.68-1-1.26-2.87-.76-3.66.6-.94,2.82-2,3.56-1.53C7,15,8.91,13.09,11.29,11.43,21.91,4,33.28,3,45.22,7.92a14.37,14.37,0,0,1,2.62,1.41A24.25,24.25,0,0,1,50,11.19ZM22,55.74c10.68,1.6,20.1,2.87,29.47,4.47,3.48.6,5.18-.8,6.67-3.63,5-9.42,4.9-18.66-.62-27.8-2.84-4.71-4.42-4.91-8.3-1Q37.36,39.52,25.61,51.36C24.63,52.34,23.83,53.49,22,55.74Z"/></g></g></svg>