<svg xmlns="http://www.w3.org/2000/svg" viewBox="0 0 76.95 75.11"><g id="Layer_2" data-name="Layer 2"><g id="Layer_1-2" data-name="Layer 1"><path d="M39.19.06c10.49,0,21,.08,31.45,0C74.63,0,77,2.39,77,5.59c-.22,11.91.28,24.08-2,35.65-3.4,17.07-15.22,27.83-31.6,33.23a17.24,17.24,0,0,1-9.68-.11A47.36,47.36,0,0,1,.13,29.4C.09,22.24,0,15.08,0,7.93.09,2,1.93.11,7.75.05c10.48-.1,21,0,31.44,0ZM28.07,56.37l.79.48L52.24,32.56,51.38,31l-8.6-1.49,7.63-16.06c-5.36.5-10.08-2.67-13.14,1.7-4.62,6.58-8.4,13.74-13.05,21.51l9.56,2.14C31.85,44.7,30,50.54,28.07,56.37Z"/></g></g></svg>