<svg xmlns="http://www.w3.org/2000/svg" viewBox="0 0 82.23 82.07"><g id="Layer_2" data-name="Layer 2"><g id="Layer_1-2" data-name="Layer 1"><path d="M15.52,60.33c1.48-4,2.26-8.92,3.59-9.07,4.79-.56,10.55-.9,14.5,1.28C40.4,56.28,47,58.39,54.68,57.93c1.68-.1,4.41,2.52,5,4.4.35,1.16-2.15,4-3.93,4.79-2.5,1-5.53.79-9.19,1.18,2.8.3,4.8.43,6.77.76,4.32.7,7-1.28,8.61-5.09C64.8,57.18,77.19,55.21,81.86,61c.72.9.29,4.2-.52,4.62C70.67,71.17,60,76.8,48.92,81.43c-3.39,1.42-8,.12-12.06-.36a33.76,33.76,0,0,1-7.06-2.16c-6.33-2.27-14.9-2.07-14.29-12.53-.15,1.38-.38,2.76-.44,4.15C14.78,78,9.85,81.38,3,78.39,1.54,77.76.28,75,.19,73.2-.14,66.39.06,59.56.06,52.73c0-3.45,1.69-5,5.19-5.23,8.7-.47,9.45.11,9.83,8.59C15.13,57.07,15.28,58.05,15.52,60.33Z"/><path d="M38.91,11l4.39,2.87c-.36-5.14-.67-9.44-1-13.7,9.33-1.32,17.51,6.3,22.24,20.63,5.59-.73,6.66.28,6.49,6.14-.23,8.52-7,16.83-15.24,18.63a20.1,20.1,0,0,1-23-11.45C29.07,25.92,31.46,16.62,38.91,11ZM50.29,21.1c-4.19,3.67-6.44,7.3-6.18,12.09a6.48,6.48,0,0,0,5.76,6.44c3.56.65,6.18-1,7.74-4.13,1.48-3-.29-8.5-2.48-8C49.57,28.86,50,25.44,50.29,21.1Z"/></g></g></svg>